<?xml version="1.0" encoding="utf-8"?>
<!-- Generator: Adobe Illustrator 26.0.2, SVG Export Plug-In . SVG Version: 6.00 Build 0)  -->
<svg version="1.1" id="Layer_1" xmlns="http://www.w3.org/2000/svg" xmlns:xlink="http://www.w3.org/1999/xlink" x="0px" y="0px" width="120" height="46"
	 viewBox="0 0 120 46" style="enable-background:new 0 0 120 46;" xml:space="preserve">
<style type="text/css">
	.st0{fill:#FD8524;}
</style>
<g>
	<g>
		<path d="M33.3,18.7h-7.9v-4.8h5.2c1.1,0,1.9-0.8,1.9-1.9c0-1.1-0.8-1.9-1.9-1.9h-5.2V6.4h7.6c1.1,0,2-0.9,2-2c0-1.2-0.9-2-2-2
			h-9.8c-1.2,0-2.2,0.9-2.2,2.2v15.9c0,1.2,0.9,2.2,2.2,2.2h10.2c1.2,0,2-0.9,2-2C35.3,19.6,34.5,18.7,33.3,18.7"/>
		<path d="M47.6,6.1c1.9,0,3.5,0.7,4.8,2.2c0.5,0.5,1.1,0.8,1.7,0.8c1.1,0,2.1-0.9,2.1-2c0-0.6-0.2-1.1-0.7-1.6
			C53.6,3.3,50.6,2,47.6,2c-6.1,0-10.8,4.6-10.8,10.5c0,5.9,4.7,10.5,10.8,10.5c3.1,0,6.1-1.3,7.8-3.5c0.5-0.6,0.7-1.1,0.7-1.6
			c0-1.1-0.9-2-2-2c-0.6,0-1.2,0.3-1.7,0.8C51,18.2,49.4,19,47.6,19c-3.7,0-6.3-2.7-6.3-6.4C41.3,8.8,43.9,6.1,47.6,6.1"/>
		<path d="M69.2,19c-3.7,0-6.3-2.6-6.3-6.4c0-3.8,2.6-6.4,6.3-6.4c3.6,0,6.3,2.7,6.3,6.4S72.8,19,69.2,19 M69.2,2
			c-6,0-10.8,4.6-10.8,10.5s4.7,10.5,10.8,10.5c6.1,0,10.8-4.6,10.8-10.5S75.2,2,69.2,2"/>
		<path d="M116.3,18.7h-7.9v-4.8h5.2c1.1,0,1.9-0.8,1.9-1.9c0-1.1-0.8-1.9-1.9-1.9h-5.2V6.4h7.6c1.1,0,2-0.9,2-2c0-1.2-0.9-2-2-2
			h-9.8c-1.2,0-2.2,0.9-2.2,2.2v15.9c0,1.2,0.9,2.2,2.2,2.2h10.2c1.2,0,2-0.9,2-2C118.4,19.6,117.5,18.7,116.3,18.7"/>
		<path d="M89.8,2.4h-4.5c-1.2,0-2.2,1-2.2,2.2V8v1.1v6.7v1.9v2.7c0,1.2,1,2.2,2.2,2.2h4.5c6.5,0,11-4.2,11-10.2
			C100.8,6.4,96.4,2.4,89.8,2.4z M89.8,18.7h-2.3v-0.9v-1.9V9.2V8V6.4h2.3c4.1,0,6.6,2.3,6.6,6.1C96.3,16.3,93.8,18.7,89.8,18.7z"/>
		<path d="M17.1,19.4l-3.5-4.9c1.9-1.2,3.1-3.2,3.1-5.6c0-1.9-0.7-3.6-2-4.8C13.2,3,11.4,2.4,9.3,2.4H3.8c-1.3,0-2.2,0.9-2.2,2.2v1
			v0.7c0,1.2,1,2.2,2.2,2.2S6,7.5,6,6.3h0h0.4h2.8c1.7,0,2.9,1.1,2.9,2.7c0,1.7-1.1,2.7-2.9,2.7H6.4H6h0c0-1.2-1-2.2-2.2-2.2
			s-2.2,1-2.2,2.2v0.8v8.3c0,1.3,1,2.2,2.2,2.2c1.2,0,2.2-1,2.2-2.2v-5.2h3.3l4.4,6.3c0.5,0.7,1.2,1.1,1.9,1.1c1.1,0,2.1-0.9,2.1-2
			C17.7,20.5,17.5,20,17.1,19.4z"/>
	</g>
	<g>
		<path class="st0" d="M86.7,41.3c0,0.9-0.2,1.6-0.5,2C86,43.8,85.5,44,84.9,44c-0.6,0-1.1-0.2-1.4-0.7c-0.3-0.4-0.4-1.1-0.4-2V29
			c0-0.9,0.1-1.6,0.4-2c0.3-0.4,0.8-0.7,1.4-0.7c0.4,0,0.7,0.1,1,0.3c0.3,0.2,0.5,0.5,0.8,0.9c0.4-0.4,0.8-0.7,1.3-0.9
			c0.5-0.2,1.1-0.3,1.7-0.3c1.6,0,2.9,0.6,4,1.8c1.1,1.2,1.6,2.8,1.6,4.6c0,1.8-0.5,3.4-1.6,4.7c-1.1,1.3-2.4,1.9-4,1.9
			c-0.6,0-1.1-0.1-1.5-0.3c-0.5-0.2-0.9-0.4-1.3-0.8V41.3z M86.7,32.7c0,0.9,0.2,1.7,0.7,2.3c0.4,0.6,1,0.9,1.7,0.9
			c0.7,0,1.3-0.3,1.7-0.9c0.4-0.6,0.7-1.3,0.7-2.3c0-0.9-0.2-1.6-0.7-2.2c-0.5-0.6-1-0.9-1.7-0.9c-0.7,0-1.3,0.3-1.7,0.8
			C86.9,31.1,86.7,31.8,86.7,32.7z"/>
		<path class="st0" d="M97.5,36.4V29c0-0.9,0.1-1.6,0.4-2c0.3-0.4,0.8-0.7,1.4-0.7c0.4,0,0.7,0.1,1,0.3c0.3,0.2,0.5,0.5,0.8,0.9
			c0.4-0.4,0.8-0.7,1.2-0.9c0.4-0.2,0.9-0.3,1.3-0.3c0.5,0,0.9,0.2,1.3,0.5c0.4,0.4,0.5,0.8,0.5,1.3c0,0.7-0.7,1.3-2,1.8
			c-0.5,0.2-0.8,0.3-1.1,0.4c-0.5,0.2-0.8,0.5-0.9,0.7c-0.2,0.3-0.2,0.8-0.2,1.5v3.8c0,0.9-0.2,1.6-0.5,2c-0.3,0.4-0.8,0.7-1.4,0.7
			c-0.6,0-1.1-0.2-1.4-0.7C97.6,37.9,97.5,37.3,97.5,36.4z"/>
		<path class="st0" d="M106.1,32.7c0-1.9,0.6-3.5,1.8-4.7c1.2-1.2,2.6-1.8,4.4-1.8c1.8,0,3.3,0.6,4.4,1.8c1.2,1.2,1.7,2.8,1.7,4.7
			c0,1.9-0.6,3.5-1.7,4.7c-1.2,1.2-2.6,1.8-4.4,1.8c-1.8,0-3.3-0.6-4.4-1.8C106.6,36.2,106.1,34.6,106.1,32.7z M109.8,32.6
			c0,0.9,0.2,1.7,0.7,2.3c0.4,0.6,1,0.9,1.7,0.9c0.7,0,1.3-0.3,1.7-0.9c0.4-0.6,0.7-1.3,0.7-2.3c0-0.9-0.2-1.6-0.7-2.2
			c-0.5-0.6-1-0.9-1.7-0.9c-0.7,0-1.3,0.3-1.7,0.9C110.1,31,109.8,31.7,109.8,32.6z"/>
	</g>
</g>
</svg>
